<svg xmlns="http://www.w3.org/2000/svg" width="223" height="62" viewBox="0 0 223 62">
    <defs>
        <style>
            .cls-1{fill:#fff}
        </style>
    </defs>
    <g id="Group_20103" transform="translate(-.986 -.321)">
        <g id="Group_499" transform="translate(10.831 9.894)">
            <g id="Group_498">
                <g id="Group_496">
                    <path id="Path_6042" d="M132.647 147.6h10.231a8.231 8.231 0 0 1 5.961 2.02 5.111 5.111 0 0 1 1.531 3.78v.065a5.433 5.433 0 0 1-3.257 5.083c2.672.913 4.528 2.445 4.528 5.539v.065c0 4.073-3.356 6.254-8.439 6.254h-10.555zm9.417 9.612c2.574 0 4.3-1.01 4.3-3.1v-.065c0-1.792-1.434-2.9-4.007-2.9h-5.767v6.061zm1.173 9.643c2.736 0 4.4-1.075 4.4-3.127v-.064c0-1.924-1.532-3.064-4.692-3.064h-6.355v6.256z" class="cls-1" transform="translate(-132.647 -147.433)"/>
                    <path id="Path_6043" d="M177.628 147.332h3.715l10.035 22.968h-4.236l-2.313-5.505h-10.785L171.7 170.3h-4.1zm5.735 13.912l-3.942-9.123-3.909 9.123z" class="cls-1" transform="translate(-146.025 -147.332)"/>
                    <path id="Path_6044" d="M254.169 147.6h8.991c5.312 0 8.668 3.03 8.668 7.624v.064c0 5.116-4.1 7.788-9.122 7.788h-4.529v7.324h-4.007zm8.667 11.86c3.03 0 4.92-1.694 4.92-4.073v-.065c0-2.672-1.922-4.073-4.92-4.073h-4.66v8.21z" class="cls-1" transform="translate(-179.169 -147.433)"/>
                    <path id="Path_6045" d="M288.852 160.727V147.6h4.008v12.968c0 4.235 2.182 6.516 5.767 6.516 3.55 0 5.734-2.151 5.734-6.352V147.6h4.007v12.93c0 6.809-3.845 10.23-9.807 10.23-5.93 0-9.709-3.422-9.709-10.034" class="cls-1" transform="translate(-192.447 -147.433)"/>
                </g>
                <g id="Group_497" transform="translate(49.261)">
                    <path id="Path_6046" d="M212.465 147.332h3.714L228.4 163.1v-15.77h3.943v22.807h-3.357l-12.576-16.225v16.225h-3.942z" class="cls-1" transform="translate(-212.465 -147.332)"/>
                </g>
            </g>
            <path id="Path_6047" d="M340.412 160.734h20.041l5.851-3.614h-19.992zm.031 5.891h-.238V147.6h-3.914v15.657l-12.13-15.657h-3.687v22.644h3.913V154.13l12.487 16.109h17.711l5.852-3.614zm52.247-19.03h-4.56l-5.662 8.216-5.628-8.211h-24.683l-5.9 3.615H366.3l5.852-3.614 7.86 11.128-8.185 11.515h4.563l5.951-8.637 5.985 8.637h4.69l-8.217-11.58 5.263-7.376h5.451v18.956h4.012v-18.961h7.18V147.6z" class="cls-1" transform="translate(-204.552 -147.433)"/>
        </g>
        <path id="Rectangle_1683" fill="none" d="M0 0H223V62H0z" transform="translate(.986 .321)"/>
        <text id="Smart_Community" fill="#fff" font-family="Gotham-Medium, Gotham" font-size="16px" font-weight="500" transform="translate(211.986 52.321)">
            <tspan x="-145.904" y="0">Smart Community</tspan>
        </text>
    </g>
</svg>
